<mxfile host="drawio-plugin" modified="2024-06-22T19:51:23.519Z" agent="5.0 (Windows NT 10.0; Win64; x64) AppleWebKit/537.36 (KHTML, like Gecko) Chrome/111.0.0.0 Safari/537.36" etag="djymiL8zqedkQlp8Zeth" version="20.5.3" type="embed"><diagram id="23iRSUPoRavnBvh4doch" name="Page-1"><mxGraphModel dx="2116" dy="1187" grid="0" gridSize="10" guides="1" tooltips="1" connect="1" arrows="1" fold="1" page="0" pageScale="1" pageWidth="827" pageHeight="1169" math="0" shadow="0"><root><mxCell id="0"/><mxCell id="1" parent="0"/><mxCell id="72" value="" style="group" vertex="1" connectable="0" parent="1"><mxGeometry x="-410" y="310" width="880" height="550" as="geometry"/></mxCell><mxCell id="2" value="«interface»&lt;br&gt;&lt;b&gt;View&lt;br&gt;&lt;/b&gt;" style="html=1;fillColor=#60a917;fontColor=#ffffff;strokeColor=#2D7600;" parent="72" vertex="1"><mxGeometry x="375" y="400" width="110" height="50" as="geometry"/></mxCell><mxCell id="5" style="edgeStyle=orthogonalEdgeStyle;rounded=0;orthogonalLoop=1;jettySize=auto;html=1;exitX=0.5;exitY=0;exitDx=0;exitDy=0;entryX=0.5;entryY=1;entryDx=0;entryDy=0;endArrow=block;endFill=0;" parent="72" source="3" target="2" edge="1"><mxGeometry relative="1" as="geometry"/></mxCell><mxCell id="3" value="«interface»&lt;br&gt;&lt;b&gt;ViewText&lt;br&gt;&lt;/b&gt;" style="html=1;fillColor=#60a917;fontColor=#ffffff;strokeColor=#2D7600;" parent="72" vertex="1"><mxGeometry x="305" y="500" width="110" height="50" as="geometry"/></mxCell><mxCell id="8" style="edgeStyle=orthogonalEdgeStyle;rounded=0;orthogonalLoop=1;jettySize=auto;html=1;exitX=0.5;exitY=0;exitDx=0;exitDy=0;entryX=0.5;entryY=1;entryDx=0;entryDy=0;endArrow=block;endFill=0;" parent="72" source="4" target="2" edge="1"><mxGeometry relative="1" as="geometry"/></mxCell><mxCell id="4" value="«interface»&lt;br&gt;&lt;b&gt;ViewGroup&lt;br&gt;&lt;/b&gt;" style="html=1;fillColor=#60a917;fontColor=#ffffff;strokeColor=#2D7600;" parent="72" vertex="1"><mxGeometry x="445" y="500" width="110" height="50" as="geometry"/></mxCell><mxCell id="9" value="«interface»&lt;br&gt;&lt;b&gt;Callable&lt;br&gt;&lt;/b&gt;" style="html=1;" parent="72" vertex="1"><mxGeometry x="245" y="290" width="110" height="50" as="geometry"/></mxCell><mxCell id="12" style="edgeStyle=orthogonalEdgeStyle;rounded=0;orthogonalLoop=1;jettySize=auto;html=1;exitX=0.5;exitY=0;exitDx=0;exitDy=0;entryX=0.5;entryY=1;entryDx=0;entryDy=0;endArrow=block;endFill=0;" parent="72" source="2" target="9" edge="1"><mxGeometry relative="1" as="geometry"/></mxCell><mxCell id="10" value="«interface»&lt;br&gt;&lt;b&gt;Drawable&lt;br&gt;&lt;/b&gt;" style="html=1;fillColor=#60a917;fontColor=#ffffff;strokeColor=#2D7600;" parent="72" vertex="1"><mxGeometry x="375" y="290" width="110" height="50" as="geometry"/></mxCell><mxCell id="26" style="edgeStyle=orthogonalEdgeStyle;rounded=0;orthogonalLoop=1;jettySize=auto;html=1;exitX=0.5;exitY=0;exitDx=0;exitDy=0;entryX=0.5;entryY=1;entryDx=0;entryDy=0;startArrow=none;startFill=0;endArrow=block;endFill=0;" parent="72" source="2" target="10" edge="1"><mxGeometry relative="1" as="geometry"/></mxCell><mxCell id="11" value="«interface»&lt;br&gt;&lt;b&gt;Collidable&lt;br&gt;&lt;/b&gt;" style="html=1;" parent="72" vertex="1"><mxGeometry x="505" y="290" width="108.5" height="50" as="geometry"/></mxCell><mxCell id="27" style="edgeStyle=orthogonalEdgeStyle;rounded=0;orthogonalLoop=1;jettySize=auto;html=1;exitX=0.5;exitY=0;exitDx=0;exitDy=0;entryX=0.5;entryY=1;entryDx=0;entryDy=0;startArrow=none;startFill=0;endArrow=block;endFill=0;" parent="72" source="2" target="11" edge="1"><mxGeometry relative="1" as="geometry"/></mxCell><mxCell id="15" value="«interface»&lt;br&gt;&lt;b&gt;Message&lt;br&gt;&lt;/b&gt;" style="html=1;" parent="72" vertex="1"><mxGeometry x="605" y="400" width="110" height="50" as="geometry"/></mxCell><mxCell id="16" style="edgeStyle=orthogonalEdgeStyle;rounded=0;orthogonalLoop=1;jettySize=auto;html=1;exitX=1;exitY=0.5;exitDx=0;exitDy=0;entryX=0;entryY=0.5;entryDx=0;entryDy=0;endArrow=classic;endFill=1;" parent="72" source="2" target="15" edge="1"><mxGeometry relative="1" as="geometry"/></mxCell><mxCell id="18" style="edgeStyle=orthogonalEdgeStyle;rounded=0;orthogonalLoop=1;jettySize=auto;html=1;exitX=0;exitY=0.5;exitDx=0;exitDy=0;entryX=1;entryY=0.5;entryDx=0;entryDy=0;endArrow=open;endFill=0;startArrow=diamondThin;startFill=1;" parent="72" source="17" target="15" edge="1"><mxGeometry relative="1" as="geometry"/></mxCell><mxCell id="17" value="«interface»&lt;br&gt;&lt;b&gt;MessageStore&lt;br&gt;&lt;/b&gt;" style="html=1;" parent="72" vertex="1"><mxGeometry x="770" y="400" width="110" height="50" as="geometry"/></mxCell><mxCell id="21" value="1" style="text;html=1;strokeColor=none;fillColor=none;align=center;verticalAlign=middle;whiteSpace=wrap;rounded=0;" parent="72" vertex="1"><mxGeometry x="730" y="400" width="60" height="30" as="geometry"/></mxCell><mxCell id="23" value="*" style="text;html=1;strokeColor=none;fillColor=none;align=center;verticalAlign=middle;whiteSpace=wrap;rounded=0;" parent="72" vertex="1"><mxGeometry x="695" y="400" width="60" height="30" as="geometry"/></mxCell><mxCell id="37" style="edgeStyle=orthogonalEdgeStyle;rounded=0;orthogonalLoop=1;jettySize=auto;html=1;exitX=1;exitY=0.5;exitDx=0;exitDy=0;entryX=0;entryY=0.5;entryDx=0;entryDy=0;startArrow=none;startFill=0;endArrow=classic;endFill=1;" parent="72" source="28" target="2" edge="1"><mxGeometry relative="1" as="geometry"/></mxCell><mxCell id="28" value="«interface»&lt;br&gt;&lt;b&gt;Context&lt;br&gt;&lt;/b&gt;" style="html=1;fillColor=#1ba1e2;fontColor=#ffffff;strokeColor=#006EAF;" parent="72" vertex="1"><mxGeometry x="70" y="400" width="110" height="50" as="geometry"/></mxCell><mxCell id="30" value="«interface»&lt;br&gt;&lt;b&gt;Window&lt;br&gt;&lt;/b&gt;" style="html=1;fillColor=#1ba1e2;fontColor=#ffffff;strokeColor=#006EAF;" parent="72" vertex="1"><mxGeometry x="150" y="500" width="110" height="50" as="geometry"/></mxCell><mxCell id="36" style="edgeStyle=orthogonalEdgeStyle;rounded=0;orthogonalLoop=1;jettySize=auto;html=1;exitX=0.5;exitY=1;exitDx=0;exitDy=0;entryX=0.5;entryY=0;entryDx=0;entryDy=0;startArrow=none;startFill=0;endArrow=classic;endFill=1;" parent="72" source="28" target="30" edge="1"><mxGeometry relative="1" as="geometry"/></mxCell><mxCell id="33" value="«interface»&lt;br&gt;&lt;b&gt;InputEmulator&lt;br&gt;&lt;/b&gt;" style="html=1;fillColor=#1ba1e2;fontColor=#ffffff;strokeColor=#006EAF;" parent="72" vertex="1"><mxGeometry y="500" width="110" height="50" as="geometry"/></mxCell><mxCell id="35" style="edgeStyle=orthogonalEdgeStyle;rounded=0;orthogonalLoop=1;jettySize=auto;html=1;exitX=0.5;exitY=1;exitDx=0;exitDy=0;entryX=0.5;entryY=0;entryDx=0;entryDy=0;startArrow=none;startFill=0;endArrow=classic;endFill=1;" parent="72" source="28" target="33" edge="1"><mxGeometry relative="1" as="geometry"/></mxCell><mxCell id="38" value="«interface»&lt;br&gt;&lt;b&gt;Graphics&lt;br&gt;&lt;/b&gt;" style="html=1;" parent="72" vertex="1"><mxGeometry x="245.75" y="140" width="110" height="50" as="geometry"/></mxCell><mxCell id="39" style="edgeStyle=orthogonalEdgeStyle;rounded=0;orthogonalLoop=1;jettySize=auto;html=1;exitX=0.5;exitY=0;exitDx=0;exitDy=0;entryX=0.5;entryY=1;entryDx=0;entryDy=0;startArrow=none;startFill=0;endArrow=classic;endFill=1;" parent="72" source="10" target="38" edge="1"><mxGeometry relative="1" as="geometry"/></mxCell><mxCell id="40" value="&lt;b&gt;Geometry&lt;br&gt;&lt;/b&gt;" style="html=1;fillColor=#d80073;fontColor=#ffffff;strokeColor=#A50040;" parent="72" vertex="1"><mxGeometry x="375.75" y="140" width="110" height="50" as="geometry"/></mxCell><mxCell id="41" style="edgeStyle=orthogonalEdgeStyle;rounded=0;orthogonalLoop=1;jettySize=auto;html=1;exitX=0.5;exitY=0;exitDx=0;exitDy=0;entryX=0.5;entryY=1;entryDx=0;entryDy=0;startArrow=none;startFill=0;endArrow=classic;endFill=1;" parent="72" source="10" target="40" edge="1"><mxGeometry relative="1" as="geometry"/></mxCell><mxCell id="42" value="&lt;b&gt;Style&lt;br&gt;&lt;/b&gt;" style="html=1;" parent="72" vertex="1"><mxGeometry x="501" y="140" width="113.25" height="50" as="geometry"/></mxCell><mxCell id="43" style="edgeStyle=orthogonalEdgeStyle;rounded=0;orthogonalLoop=1;jettySize=auto;html=1;exitX=0.5;exitY=0;exitDx=0;exitDy=0;entryX=0.5;entryY=1;entryDx=0;entryDy=0;startArrow=none;startFill=0;endArrow=classic;endFill=1;" parent="72" source="10" target="42" edge="1"><mxGeometry relative="1" as="geometry"/></mxCell><mxCell id="44" value="&lt;b&gt;Geometry&lt;br&gt;&lt;/b&gt;" style="html=1;fillColor=#d80073;fontColor=#ffffff;strokeColor=#A50040;" parent="72" vertex="1"><mxGeometry x="675" y="140" width="110" height="50" as="geometry"/></mxCell><mxCell id="45" style="edgeStyle=orthogonalEdgeStyle;rounded=0;orthogonalLoop=1;jettySize=auto;html=1;exitX=1;exitY=0.5;exitDx=0;exitDy=0;entryX=0;entryY=0.5;entryDx=0;entryDy=0;startArrow=none;startFill=0;endArrow=classic;endFill=1;" parent="72" source="42" target="44" edge="1"><mxGeometry relative="1" as="geometry"/></mxCell><mxCell id="46" value="&lt;b&gt;Color&lt;br&gt;&lt;/b&gt;" style="html=1;fillColor=#d80073;fontColor=#ffffff;strokeColor=#A50040;" parent="72" vertex="1"><mxGeometry x="675" y="70" width="110" height="50" as="geometry"/></mxCell><mxCell id="47" style="edgeStyle=orthogonalEdgeStyle;rounded=0;orthogonalLoop=1;jettySize=auto;html=1;exitX=1;exitY=0.5;exitDx=0;exitDy=0;entryX=0;entryY=0.5;entryDx=0;entryDy=0;startArrow=none;startFill=0;endArrow=classic;endFill=1;" parent="72" source="42" target="46" edge="1"><mxGeometry relative="1" as="geometry"/></mxCell><mxCell id="48" value="&lt;b&gt;Font&lt;br&gt;&lt;/b&gt;" style="html=1;fillColor=#d80073;fontColor=#ffffff;strokeColor=#A50040;" parent="72" vertex="1"><mxGeometry x="675" y="210" width="110" height="50" as="geometry"/></mxCell><mxCell id="49" style="edgeStyle=orthogonalEdgeStyle;rounded=0;orthogonalLoop=1;jettySize=auto;html=1;exitX=1;exitY=0.5;exitDx=0;exitDy=0;entryX=0;entryY=0.5;entryDx=0;entryDy=0;startArrow=none;startFill=0;endArrow=classic;endFill=1;" parent="72" source="42" target="48" edge="1"><mxGeometry relative="1" as="geometry"/></mxCell><mxCell id="51" value="&lt;b&gt;Color&lt;br&gt;&lt;/b&gt;" style="html=1;fillColor=#d80073;fontColor=#ffffff;strokeColor=#A50040;" parent="72" vertex="1"><mxGeometry x="307.88" width="110" height="50" as="geometry"/></mxCell><mxCell id="63" style="edgeStyle=orthogonalEdgeStyle;rounded=0;orthogonalLoop=1;jettySize=auto;html=1;exitX=0.5;exitY=0;exitDx=0;exitDy=0;entryX=0.5;entryY=1;entryDx=0;entryDy=0;startArrow=none;startFill=0;endArrow=classic;endFill=1;" parent="72" source="38" target="51" edge="1"><mxGeometry relative="1" as="geometry"/></mxCell><mxCell id="52" value="&lt;b&gt;Font&lt;br&gt;&lt;/b&gt;" style="html=1;fillColor=#d80073;fontColor=#ffffff;strokeColor=#A50040;" parent="72" vertex="1"><mxGeometry x="177.88" width="110" height="50" as="geometry"/></mxCell><mxCell id="65" style="edgeStyle=orthogonalEdgeStyle;rounded=0;orthogonalLoop=1;jettySize=auto;html=1;exitX=0.5;exitY=0;exitDx=0;exitDy=0;entryX=0.5;entryY=1;entryDx=0;entryDy=0;startArrow=none;startFill=0;endArrow=classic;endFill=1;" parent="72" source="38" target="52" edge="1"><mxGeometry relative="1" as="geometry"/></mxCell><mxCell id="57" value="&lt;b&gt;Image&lt;br&gt;&lt;/b&gt;" style="html=1;fillColor=#d80073;fontColor=#ffffff;strokeColor=#A50040;" parent="72" vertex="1"><mxGeometry x="47.879999999999995" width="110" height="50" as="geometry"/></mxCell><mxCell id="66" style="edgeStyle=orthogonalEdgeStyle;rounded=0;orthogonalLoop=1;jettySize=auto;html=1;exitX=0.5;exitY=0;exitDx=0;exitDy=0;entryX=0.5;entryY=1;entryDx=0;entryDy=0;startArrow=none;startFill=0;endArrow=classic;endFill=1;" parent="72" source="38" target="57" edge="1"><mxGeometry relative="1" as="geometry"/></mxCell><mxCell id="59" value="&lt;b&gt;Transform&lt;br&gt;&lt;/b&gt;" style="html=1;" parent="72" vertex="1"><mxGeometry x="442.13" width="110" height="50" as="geometry"/></mxCell><mxCell id="64" style="edgeStyle=orthogonalEdgeStyle;rounded=0;orthogonalLoop=1;jettySize=auto;html=1;exitX=0.5;exitY=0;exitDx=0;exitDy=0;entryX=0.5;entryY=1;entryDx=0;entryDy=0;startArrow=none;startFill=0;endArrow=classic;endFill=1;" parent="72" source="38" target="59" edge="1"><mxGeometry relative="1" as="geometry"/></mxCell><mxCell id="61" value="«interface»&lt;br&gt;&lt;b&gt;Callback&lt;br&gt;&lt;/b&gt;" style="html=1;" parent="72" vertex="1"><mxGeometry x="80" y="290" width="110" height="50" as="geometry"/></mxCell><mxCell id="71" style="edgeStyle=orthogonalEdgeStyle;rounded=0;orthogonalLoop=1;jettySize=auto;html=1;exitX=0;exitY=0.5;exitDx=0;exitDy=0;entryX=1;entryY=0.5;entryDx=0;entryDy=0;startArrow=diamond;startFill=1;endArrow=open;endFill=0;" parent="72" source="9" target="61" edge="1"><mxGeometry relative="1" as="geometry"/></mxCell><mxCell id="67" value="1" style="text;html=1;strokeColor=none;fillColor=none;align=center;verticalAlign=middle;whiteSpace=wrap;rounded=0;" parent="72" vertex="1"><mxGeometry x="205.75" y="290" width="60" height="30" as="geometry"/></mxCell><mxCell id="69" value="*" style="text;html=1;strokeColor=none;fillColor=none;align=center;verticalAlign=middle;whiteSpace=wrap;rounded=0;" parent="72" vertex="1"><mxGeometry x="170" y="290" width="60" height="30" as="geometry"/></mxCell></root></mxGraphModel></diagram></mxfile>